<?xml version="1.0" standalone="no"?>
<!DOCTYPE svg PUBLIC "-//W3C//DTD SVG 20010904//EN"
 "http://www.w3.org/TR/2001/REC-SVG-20010904/DTD/svg10.dtd">
<svg version="1.0" xmlns="http://www.w3.org/2000/svg"
 width="225.000000pt" height="225.000000pt" viewBox="0 0 225.000000 225.000000"
 preserveAspectRatio="xMidYMid meet">
<metadata>
Created by potrace 1.14, written by Peter Selinger 2001-2017
</metadata>
<g transform="translate(0.000000,225.000000) scale(0.100000,-0.100000)"
fill="#000000" stroke="none">
<path d="M696 1391 c-338 -339 -387 -391 -378 -407 11 -19 717 -724 760 -758
l24 -19 114 114 114 114 -170 170 c-93 94 -170 177 -170 185 0 24 294 313 314
308 9 -1 92 -78 184 -171 l167 -167 117 117 117 118 -387 393 c-213 215 -394
392 -402 392 -8 0 -190 -175 -404 -389z"/>
</g>
</svg>
